<?xml version="1.0" encoding="UTF-8" standalone="no"?><!DOCTYPE svg PUBLIC "-//W3C//DTD SVG 1.1//EN" "http://www.w3.org/Graphics/SVG/1.1/DTD/svg11.dtd"><svg width="100%" height="100%" viewBox="0 0 113 113" version="1.1" xmlns="http://www.w3.org/2000/svg" xmlns:xlink="http://www.w3.org/1999/xlink" xml:space="preserve" xmlns:serif="http://www.serif.com/" style="fill-rule:evenodd;clip-rule:evenodd;stroke-linejoin:round;stroke-miterlimit:2;"><path d="M33.41,10.304c0.342,-0.171 0.754,-0.113 1.035,0.145c0.282,0.259 0.375,0.664 0.234,1.019c-2.465,6.384 -3.82,13.317 -3.82,20.563c0,31.477 25.555,57.032 57.032,57.032c0.147,-0 0.294,-0.001 0.44,-0.002c0.385,-0.006 0.733,0.227 0.875,0.585c0.142,0.358 0.048,0.766 -0.237,1.025c-8.701,7.743 -20.164,12.454 -32.719,12.454c-27.165,0 -49.219,-22.054 -49.219,-49.219c0,-18.924 10.703,-35.367 26.379,-43.602Z" style="fill:#fff;"/></svg>