<?xml version="1.0" encoding="UTF-8" standalone="no"?><!DOCTYPE svg PUBLIC "-//W3C//DTD SVG 1.1//EN" "http://www.w3.org/Graphics/SVG/1.1/DTD/svg11.dtd"><svg width="100%" height="100%" viewBox="0 0 113 113" version="1.1" xmlns="http://www.w3.org/2000/svg" xmlns:xlink="http://www.w3.org/1999/xlink" xml:space="preserve" xmlns:serif="http://www.serif.com/" style="fill-rule:evenodd;clip-rule:evenodd;stroke-linejoin:round;stroke-miterlimit:2;"><path d="M53.64,4.409c0.624,-0.81 1.588,-1.284 2.61,-1.284c1.022,0 1.986,0.474 2.61,1.284c2.423,3.146 5.98,7.765 8.195,10.64c1.242,1.613 3.283,2.396 5.285,2.028c3.278,-0.602 8.308,-1.527 11.635,-2.139c0.887,-0.163 1.802,0.045 2.532,0.575c0.73,0.53 1.21,1.336 1.329,2.231c0.429,3.22 1.068,8.025 1.508,11.326c0.296,2.223 1.927,4.035 4.106,4.563c3.988,0.966 10.438,2.528 14.969,3.625c1.111,0.269 2.004,1.096 2.357,2.184c0.354,1.088 0.118,2.281 -0.624,3.152c-3.02,3.55 -7.32,8.606 -9.979,11.731c-1.452,1.708 -1.707,4.133 -0.64,6.105c1.585,2.929 3.892,7.192 5.438,10.05c0.429,0.793 0.514,1.728 0.236,2.585c-0.279,0.858 -0.897,1.564 -1.711,1.954c-2.93,1.403 -7.302,3.496 -10.306,4.934c-2.022,0.968 -3.242,3.08 -3.071,5.315c0.314,4.091 0.822,10.709 1.178,15.356c0.088,1.141 -0.423,2.245 -1.348,2.917c-0.925,0.672 -2.133,0.817 -3.191,0.381c-4.31,-1.775 -10.447,-4.303 -14.24,-5.866c-2.073,-0.853 -4.458,-0.346 -6.004,1.278c-2.296,2.413 -5.638,5.924 -7.878,8.277c-0.622,0.654 -1.484,1.023 -2.386,1.023c-0.902,0 -1.764,-0.369 -2.386,-1.023c-2.24,-2.353 -5.582,-5.864 -7.878,-8.277c-1.546,-1.624 -3.931,-2.131 -6.004,-1.278c-3.793,1.563 -9.93,4.091 -14.24,5.866c-1.058,0.436 -2.266,0.291 -3.191,-0.381c-0.925,-0.672 -1.436,-1.776 -1.348,-2.917c0.356,-4.647 0.864,-11.265 1.178,-15.356c0.171,-2.235 -1.049,-4.347 -3.071,-5.315c-3.004,-1.438 -7.376,-3.531 -10.306,-4.934c-0.814,-0.39 -1.432,-1.096 -1.711,-1.954c-0.278,-0.857 -0.193,-1.792 0.236,-2.585c1.546,-2.858 3.853,-7.121 5.438,-10.05c1.067,-1.972 0.812,-4.397 -0.64,-6.105c-2.659,-3.125 -6.959,-8.181 -9.979,-11.731c-0.742,-0.871 -0.978,-2.064 -0.624,-3.152c0.353,-1.088 1.246,-1.915 2.357,-2.184c4.531,-1.097 10.981,-2.659 14.969,-3.625c2.179,-0.528 3.81,-2.34 4.106,-4.563c0.44,-3.301 1.079,-8.106 1.508,-11.326c0.119,-0.895 0.599,-1.701 1.329,-2.231c0.73,-0.53 1.645,-0.738 2.532,-0.575c3.327,0.612 8.357,1.537 11.635,2.139c2.002,0.368 4.043,-0.415 5.285,-2.028c2.215,-2.875 5.772,-7.494 8.195,-10.64Zm2.61,18.11c18.51,0 33.538,15.028 33.538,33.538c-0,18.51 -15.028,33.538 -33.538,33.538c-18.51,-0 -33.538,-15.028 -33.538,-33.538c0,-18.51 15.028,-33.538 33.538,-33.538Z" style="fill:#fff;"/><circle cx="56.25" cy="56.057" r="27.518" style="fill:#fff;"/></svg>