<?xml version="1.0" encoding="UTF-8" standalone="no"?><!DOCTYPE svg PUBLIC "-//W3C//DTD SVG 1.1//EN" "http://www.w3.org/Graphics/SVG/1.1/DTD/svg11.dtd"><svg width="100%" height="100%" viewBox="0 0 1024 1024" version="1.1" xmlns="http://www.w3.org/2000/svg" xmlns:xlink="http://www.w3.org/1999/xlink" xml:space="preserve" xmlns:serif="http://www.serif.com/" style="fill-rule:evenodd;clip-rule:evenodd;stroke-linejoin:round;stroke-miterlimit:2;"><g><path d="M498.677,613.755c-0,-7.633 -6.188,-13.821 -13.821,-13.821c-56.425,0 -269.003,0 -325.427,0c-7.633,0 -13.821,6.188 -13.821,13.821c-0,56.878 -0,272.546 -0,329.424c-0,7.633 6.188,13.821 13.821,13.821c56.424,-0 269.002,-0 325.427,-0c7.633,-0 13.821,-6.188 13.821,-13.821c-0,-56.878 -0,-272.546 -0,-329.424Z" style="fill:#ffd02b;"/><path d="M611.925,77.182c0,-2.711 1.101,-5.307 3.051,-7.191c1.95,-1.884 4.582,-2.896 7.292,-2.803c142.281,5.451 256.124,122.675 256.124,266.279c0,143.604 -113.843,260.828 -256.125,266.27c-2.707,0.092 -5.336,-0.918 -7.284,-2.801c-1.948,-1.882 -3.048,-4.475 -3.048,-7.184c-0.01,-28.045 -0.01,-106.139 -0.01,-133.455c0,-5.214 4.006,-9.553 9.204,-9.968c58.207,-4.674 104.045,-53.457 104.045,-112.862c-0,-59.405 -45.838,-108.188 -104.044,-112.879c-5.188,-0.415 -9.187,-4.746 -9.187,-9.951c-0.018,-27.316 -0.018,-105.41 -0.018,-133.455Z" style="fill:#f55959;"/><path d="M611.925,179.62c0,1.839 -1.491,3.33 -3.33,3.33c-0,0 -0,0 -0.001,0c-82.725,0 -149.887,67.163 -149.887,149.888c-0,82.725 67.162,149.888 149.887,149.888c0.001,-0 0.001,-0 0.001,-0c0.883,-0 1.73,0.351 2.355,0.975c0.624,0.625 0.975,1.472 0.975,2.355c0,15.351 0,79.024 0,103.878c0,5.523 -4.477,10 -10,10c-37.435,0 -169.061,0 -206.497,0c-5.523,0 -10,-4.477 -10,-10c0,-66.679 0,-446.255 0,-512.934c0,-5.523 4.477,-10 10,-10c37.436,0 169.062,0 206.497,0c5.523,0 10,4.477 10,10c0,24.643 0,87.393 0,102.62Z" style="fill:#5bb85a;"/><path d="M385.428,77.353c0,-5.523 -4.477,-10 -10,-10c-34.99,-0 -152.609,-0 -204.668,-0c-4.096,-0 -7.779,2.498 -9.292,6.305c-1.514,3.807 -0.552,8.152 2.426,10.965c45.094,42.588 161.105,152.154 204.668,193.297c2.902,2.742 7.158,3.494 10.824,1.913c3.667,-1.58 6.042,-5.19 6.042,-9.183l0,-193.297Z" style="fill:#2baaff;"/><path d="M385.428,297.812c0,-2.754 -1.136,-5.386 -3.139,-7.275c-23.288,-21.96 -169.639,-159.965 -219.82,-207.285c-2.904,-2.738 -7.158,-3.488 -10.823,-1.906c-3.665,1.581 -6.038,5.19 -6.038,9.181c-0,92.89 -0,436.297 -0,499.407c-0,5.523 4.477,10 10,10c39.02,0 180.8,0 219.82,0c2.652,0 5.196,-1.053 7.071,-2.929c1.876,-1.875 2.929,-4.419 2.929,-7.071c0,-48.616 0,-259.269 0,-292.122Z" style="fill:#f55959;"/></g></svg>