<?xml version="1.0" encoding="UTF-8" standalone="no"?><!DOCTYPE svg PUBLIC "-//W3C//DTD SVG 1.1//EN" "http://www.w3.org/Graphics/SVG/1.1/DTD/svg11.dtd"><svg width="100%" height="100%" viewBox="0 0 1024 1024" version="1.1" xmlns="http://www.w3.org/2000/svg" xmlns:xlink="http://www.w3.org/1999/xlink" xml:space="preserve" xmlns:serif="http://www.serif.com/" style="fill-rule:evenodd;clip-rule:evenodd;stroke-linejoin:round;stroke-miterlimit:2;"><path d="M1007.31,184.447c-7.066,-89.379 -78.205,-160.28 -167.608,-167.046c-108.925,-8.209 -250.764,-17.401 -339.698,-17.401c-84.44,-0 -214.392,8.715 -316.266,16.751c-89.137,7.053 -159.93,77.846 -166.983,166.983c-8.036,101.874 -16.751,231.826 -16.751,316.266c-0,88.934 9.192,230.773 17.4,339.698c6.766,89.404 77.667,160.543 167.047,167.609c101.767,8.019 231.31,16.693 315.553,16.693c88.74,0 230.155,-9.152 338.985,-17.346c89.644,-6.778 160.891,-78.025 167.669,-167.669c8.194,-108.83 17.346,-250.245 17.346,-338.985c0,-84.243 -8.674,-213.786 -16.694,-315.553Z" style="fill:#fff;"/><path d="M1013.44,178.333c-7.243,-88.586 -77.458,-158.958 -166.028,-166.4c-78.523,-6.349 -191.811,-11.933 -347.413,-11.933c-144.437,0 -249.51,5.06 -323.19,11.024c-88.527,7.413 -158.741,77.7 -166.063,166.234c-5.843,73.14 -10.747,177.724 -10.747,322.742c0,156.309 5.418,268.979 11.648,346.872c7.367,88.521 77.604,158.767 166.123,166.146c73.707,5.947 178.546,10.982 322.229,10.982c150.237,0 261.157,-5.235 339.393,-11.33c89.22,-7.179 159.952,-78.21 166.753,-167.46c8.348,-109.609 17.854,-254.767 17.854,-345.21c0,-144.658 -4.799,-248.787 -10.559,-321.667Z" style="fill:#fff;"/><g transform="matrix(1,0,0,1,68.25,-218)"><text x="100px" y="684.894px" style="font-family:'SourceHanSans-Heavy', 'Source Han Sans', sans-serif;font-weight:900;font-size:200px;">1<tspan x="228.2px 356.4px " y="684.894px 684.894px ">2期</tspan></text><text x="100px" y="934.894px" style="font-family:'SourceHanSans-Heavy', 'Source Han Sans', sans-serif;font-weight:900;font-size:200px;">B<tspan x="245.4px 318.2px 452px 581.6px 653.6px " y="934.894px 934.894px 934.894px 934.894px 934.894px ">log&apos;s</tspan></text></g></svg>