<?xml version="1.0" encoding="UTF-8" standalone="no"?><!DOCTYPE svg PUBLIC "-//W3C//DTD SVG 1.1//EN" "http://www.w3.org/Graphics/SVG/1.1/DTD/svg11.dtd"><svg width="100%" height="100%" viewBox="0 0 1024 1024" version="1.1" xmlns="http://www.w3.org/2000/svg" xmlns:xlink="http://www.w3.org/1999/xlink" xml:space="preserve" xmlns:serif="http://www.serif.com/" style="fill-rule:evenodd;clip-rule:evenodd;stroke-linejoin:round;stroke-miterlimit:2;"><path d="M1007.31,184.447c-7.066,-89.379 -78.205,-160.28 -167.608,-167.046c-108.925,-8.209 -250.764,-17.401 -339.698,-17.401c-84.44,-0 -214.392,8.715 -316.266,16.751c-89.137,7.053 -159.93,77.846 -166.983,166.983c-8.036,101.874 -16.751,231.826 -16.751,316.266c-0,88.934 9.192,230.773 17.4,339.698c6.766,89.404 77.667,160.543 167.047,167.609c101.767,8.019 231.31,16.693 315.553,16.693c88.74,0 230.155,-9.152 338.985,-17.346c89.644,-6.778 160.891,-78.025 167.669,-167.669c8.194,-108.83 17.346,-250.245 17.346,-338.985c0,-84.243 -8.674,-213.786 -16.694,-315.553Z" style="fill:#fff;"/><path d="M1013.44,178.333c-7.243,-88.586 -77.458,-158.958 -166.028,-166.4c-78.523,-6.349 -191.811,-11.933 -347.413,-11.933c-144.437,0 -249.51,5.06 -323.19,11.024c-88.527,7.413 -158.741,77.7 -166.063,166.234c-5.843,73.14 -10.747,177.724 -10.747,322.742c0,156.309 5.418,268.979 11.648,346.872c7.367,88.521 77.604,158.767 166.123,166.146c73.707,5.947 178.546,10.982 322.229,10.982c154.591,0 267.554,-5.542 346.113,-11.863c88.506,-7.389 158.729,-77.625 166.101,-166.133c6.288,-78.38 11.786,-191.178 11.786,-346.004c0,-144.658 -4.799,-248.787 -10.559,-321.667Z" style="fill:#fff;"/><g transform="matrix(1,0,0,1,68.25,-218)"><text x="100px" y="684.894px" style="font-family:'SourceHanSans-Heavy', 'Source Han Sans', sans-serif;font-weight:900;font-size:200px;">1<tspan x="228.2px 356.4px " y="684.894px 684.894px ">2期</tspan></text><text x="100px" y="934.894px" style="font-family:'SourceHanSans-Heavy', 'Source Han Sans', sans-serif;font-weight:900;font-size:200px;">B<tspan x="245.4px 318.2px 452px 581.6px 653.6px " y="934.894px 934.894px 934.894px 934.894px 934.894px ">log&apos;s</tspan></text></g><path d="M763.333,332.5c-26.666,-0.833 -48.333,20 -48.75,46.667l0,2.083c0,21.25 13.334,40.833 34.167,47.917c2.5,0.416 2.917,-0.834 2.917,-2.5l-0,-12.084c-0,0 -13.75,2.5 -16.667,-6.25c0,0 -2.5,-5.416 -5.417,-7.5c0,0 -4.583,-2.916 0.417,-2.916c2.917,0.416 6.25,2.5 7.5,5c2.5,5 9.167,7.083 14.167,4.166l0.416,0c0.417,-2.5 1.667,-5 2.917,-6.666c-11.25,-1.667 -22.5,-2.5 -22.5,-21.667c-0,-4.583 2.083,-8.75 5,-11.667c-0,-4.583 -0,-9.166 1.25,-13.333c4.167,-1.667 13.75,5.417 13.75,5.417c8.333,-2.5 16.667,-2.5 25,-0c-0,-0 9.167,-6.667 13.333,-5c2.084,4.166 2.084,9.166 0.417,13.333c2.917,2.917 5,7.5 5,11.667c-0,18.75 -11.667,20.833 -22.917,21.666c2.5,2.5 3.75,5.417 2.917,9.167l-0,16.667c-0,2.083 0.833,2.5 2.917,2.5c20.416,-7.084 34.166,-25.834 33.333,-47.917c0.417,-26.667 -21.25,-48.333 -48.333,-48.333c-0.417,-0.417 -0.834,-0.417 -0.834,-0.417Z" style="fill:#fff;fill-rule:nonzero;"/></svg>